#!OML:ASF H:\Not Pregnant\Project 1\Capture day 1\Session 1\non-pregnant.ASF
:FULLY-SPECIFIED
:DEGREES
232
root -3.25306 16.0466 34.4311 -202.409 -82.1836 -98.3567
lowerback 16.7421 3.12442 11.5983
upperback 8.82272 4.94914 1.80457
thorax 1.09302 2.54014 -5.30279
lowerneck 20.0244 -6.45132 -30.182
upperneck 18.6125 -19.0415 35.9182
head 9.53068 -11.2948 20.5873
rclavicle 6.04305e-014 -1.11319e-014
rhumerus -20.6645 74.9854 -100.621
rradius 97.1405
rwrist -24.2938
rhand -5.52571 -2.94067
rfingers 7.12502
rthumb 20.2882 -31.901
lclavicle 6.04305e-014 -1.11319e-014
lhumerus -99.771 -37.1962 160.177
lradius 84.8287
lwrist 107.668
lhand 6.08945 -11.0822
lfingers 7.12502
lthumb 31.4085 16.2406
rfemur -66.9989 3.22537 35.2231
rtibia 4.73277
rfoot 0.585341 14.6411
rtoes -11.9145
lfemur -77.9918 6.96955 -8.41049
ltibia 15.5876
lfoot 2.68891 -1.70942
ltoes -17.968
233
root -3.25445 16.0661 34.4351 -201.912 -82.1622 -99.4441
lowerback 16.5869 3.09099 11.5135
upperback 8.72508 4.89791 1.79081
thorax 1.04813 2.51191 -5.25912
lowerneck 20.0198 -6.39281 -30.2503
upperneck 18.703 -19.0355 35.8477
head 9.55741 -11.3119 20.571
rclavicle 1.145e-013 4.25399e-014
rhumerus -21.1891 75.0213 -101.154
rradius 97.1102
rwrist -24.4268
rhand -5.50715 -2.87882
rfingers 7.12502
rthumb 20.3061 -31.8373
lclavicle 1.145e-013 4.25399e-014
lhumerus -99.6742 -37.0622 160.091
lradius 84.8596
lwrist 107.644
lhand 5.89436 -10.9926
lfingers 7.12502
lthumb 31.2227 16.3662
rfemur -66.2309 2.78236 35.785
rtibia 4.36417
rfoot 0.497952 15.4306
rtoes -12.6453
lfemur -77.2357 6.91902 -8.53542
ltibia 15.4434
lfoot 2.64567 -1.75866
ltoes -18.0298
234
root -3.25702 16.0818 34.4392 -201.426 -82.1361 -100.523
lowerback 16.4238 3.06517 11.4164
upperback 8.62269 4.8547 1.78621
thorax 1.00157 2.48678 -5.19964
lowerneck 20.0273 -6.33602 -30.3109
upperneck 18.7806 -19.0305 35.7804
head 9.57647 -11.3295 20.5526
rclavicle 3.81667e-014 2.38542e-015
rhumerus -21.7081 75.0609 -101.659
rradius 97.0479
rwrist -24.5638
rhand -5.52915 -2.95403
rfingers 7.12502
rthumb 20.2849 -31.9147
lclavicle 3.81667e-014 2.38542e-015
lhumerus -99.5917 -36.925 160.029
lradius 84.888
lwrist 107.61
lhand 5.89179 -10.841
lfingers 7.12502
lthumb 31.2202 16.5183
rfemur -65.4575 2.32087 36.3362
rtibia 3.98377
rfoot 0.409991 16.2193
rtoes -13.3121
lfemur -76.4835 6.87492 -8.65792
ltibia 15.3134
lfoot 2.59342 -1.80519
ltoes -18.0839
235
root -3.26016 16.0976 34.443 -200.918 -82.1061 -101.618
lowerback 16.2454 3.05114 11.2955
upperback 8.51361 4.823 1.79269
thorax 0.954368 2.46621 -5.11606
lowerneck 20.0466 -6.28005 -30.3716
upperneck 18.8482 -19.028 35.7182
head 9.59157 -11.3495 20.5367
rclavicle -4.13472e-014 -4.29375e-014
rhumerus -22.235 75.101 -102.153
rradius 96.9459
rwrist -24.6891
rhand -5.5833 -3.05002
rfingers 7.12502
rthumb 20.2329 -32.0163
lclavicle -4.13472e-014 -4.29375e-014
lhumerus -99.5232 -36.7864 159.998
lradius 84.908
lwrist 107.578
lhand 5.90248 -10.7148
lfingers 7.12502
lthumb 31.2304 16.6425
rfemur -64.6837 1.84199 36.8715
rtibia 3.58727
rfoot 0.322787 17.0087
rtoes -13.9307
lfemur -75.7353 6.83939 -8.78182
ltibia 15.1898
lfoot 2.53229 -1.8479
ltoes -18.1248
236
root -3.26371 16.1132 34.447 -200.393 -82.0712 -102.726
lowerback 16.0509 3.04147 11.1711
upperback 8.40153 4.79523 1.80212
thorax 0.912847 2.44785 -5.02691
lowerneck 20.0684 -6.22636 -30.4346
upperneck 18.9107 -19.0287 35.6564
head 9.60635 -11.3714 20.5206
rclavicle -3.02153e-014 3.69739e-014
rhumerus -22.7966 75.1675 -102.664
rradius 96.8599
rwrist -24.8665
rhand -5.70033 -3.10227
rfingers 7.12502
rthumb 20.1204 -32.0804
lclavicle -3.02153e-014 3.69739e-014
lhumerus -99.4539 -36.6504 159.981
lradius 84.921
lwrist 107.546
lhand 5.8659 -10.6141
lfingers 7.12502
lthumb 31.1955 16.7499
rfemur -64.0401 1.3161 37.3799
rtibia 3.42601
rfoot 0.112574 17.773
rtoes -14.5149
lfemur -75.0115 6.81108 -8.90713
ltibia 15.1129
lfoot 2.44485 -1.88781
ltoes -18.1663
